<svg xmlns="http://www.w3.org/2000/svg" viewBox="0 0 312 216"><defs><style>.cls-1,.cls-5{fill:#f2f2f2;}.cls-2{fill:#e37f65;}.cls-3{fill:#1c1c1c;}.cls-3,.cls-4{stroke:#1c1c1c;}.cls-10,.cls-14,.cls-3,.cls-4,.cls-5{stroke-linecap:round;stroke-linejoin:round;stroke-width:0.5px;}.cls-4{fill:none;}.cls-5{stroke:#f2f2f2;}.cls-6{fill:#85c2bd;}.cls-7{fill:#154561;}.cls-8{fill:#a2ddf5;}.cls-9{fill:#de6b4e;}.cls-10{fill:#fcfcfc;stroke:#fcfcfc;}.cls-11,.cls-13{font-size:5.29px;font-family:MyriadPro-Regular, Myriad Pro;}.cls-12{letter-spacing:-0.08em;}.cls-13{fill:#fcfafa;}.cls-14{fill:#4c3815;stroke:#4c3815;}.cls-15{font-size:70.62px;font-family:NewsGothicBT-Roman, NewsGoth BT;}</style></defs><title>iconos</title><g id="ui"><path class="cls-1" d="M163.54,194.43a10.76,10.76,0,0,1-5.39-1.45L88,152.51a10.84,10.84,0,0,1-5.4-9.35v-81A10.84,10.84,0,0,1,88,52.85l70.11-40.47a10.76,10.76,0,0,1,10.79,0l70.11,40.47a10.84,10.84,0,0,1,5.4,9.35v81a10.84,10.84,0,0,1-5.4,9.35L168.94,193A10.76,10.76,0,0,1,163.54,194.43Z"/><path class="cls-1" d="M163.54,11.43a10.32,10.32,0,0,1,5.15,1.38L238.8,53.29A10.31,10.31,0,0,1,244,62.2v81a10.31,10.31,0,0,1-5.15,8.91l-70.11,40.48a10.28,10.28,0,0,1-10.29,0L88.29,152.07a10.31,10.31,0,0,1-5.15-8.91v-81a10.31,10.31,0,0,1,5.15-8.91L158.4,12.81a10.31,10.31,0,0,1,5.14-1.38m0-1a11.38,11.38,0,0,0-5.64,1.51L87.79,52.42a11.29,11.29,0,0,0-5.65,9.78v81a11.29,11.29,0,0,0,5.65,9.78l70.11,40.48a11.31,11.31,0,0,0,11.29,0l70.11-40.48a11.29,11.29,0,0,0,5.65-9.78v-81a11.29,11.29,0,0,0-5.65-9.78L169.19,11.94a11.39,11.39,0,0,0-5.65-1.51Z"/><path class="cls-2" d="M159.12,96.32V108c-.34,0-.67,0-1,0a22.85,22.85,0,0,1,0-45.7c.34,0,.67,0,1,0v5"/><path class="cls-3" d="M141.86,45.46A2.09,2.09,0,0,0,143.34,49h15.78v4.44h-29a3,3,0,0,0-3,3V147a3,3,0,0,0,3,3h29v2.44a4.81,4.81,0,0,0-1-.1,5.1,5.1,0,1,0,0,10.19,4.81,4.81,0,0,0,1-.1v3.77h-29a8.58,8.58,0,0,1-8.55-8.55V49.07a8.58,8.58,0,0,1,8.55-8.55h29v4.32H143.34A2.09,2.09,0,0,0,141.86,45.46Z"/><path class="cls-4" d="M159.12,44.84V49H143.34a2.1,2.1,0,0,1,0-4.2Z"/><polygon class="cls-5" points="159 96.01 155.26 92.63 155.26 88.65 159 88.65 159 96.01"/><path class="cls-6" d="M153.64,93.19s3.65,3.76,4.19,5.69,0,8.51,0,8.51V108a25,25,0,0,1-6.68-1.08,19.07,19.07,0,0,1-5.79-2.8v-.51c.9-8.19,9.64-11,9.64-11"/><path class="cls-7" d="M149,98.71a4.18,4.18,0,0,1,1.56,1.51,7.82,7.82,0,0,1,.88,2,6.74,6.74,0,0,1,.39,2.16,5.78,5.78,0,0,1-.47,2.15h-.09a5.33,5.33,0,0,1-.27-1.06c-.07-.34-.13-.68-.17-1-.12-.67,0-1.36-.17-2a7.41,7.41,0,0,0-.54-2,4,4,0,0,0-1.17-1.66Z"/><path class="cls-8" d="M135.26,85.15A22.85,22.85,0,0,0,158.11,108c.34,0,.67,0,1,0v6.17H134.34v7h24.78V124H134.34v6.48h24.78v3.3h-9.81a3.75,3.75,0,0,0,0,7.5h9.81V150h-29a3,3,0,0,1-3-3V56.45a3,3,0,0,1,3-3h29v8.85c-.34,0-.67,0-1,0A22.85,22.85,0,0,0,135.26,85.15Z"/><path class="cls-9" d="M159.12,133.82v7.5h-9.81a3.75,3.75,0,0,1,0-7.5Z"/><rect class="cls-10" x="134.34" y="124.04" width="24.78" height="6.48"/><rect class="cls-10" x="134.34" y="114.14" width="24.78" height="7.02"/><path class="cls-4" d="M159.12,152.4v10a4.81,4.81,0,0,1-1,.1,5.1,5.1,0,1,1,0-10.19A4.81,4.81,0,0,1,159.12,152.4Z"/><text class="cls-11" transform="translate(139.8 119.52)">USER NA</text><text class="cls-11" transform="translate(143.13 128.77)"><tspan class="cls-12">P</tspan><tspan x="2.37" y="0">ASSW</tspan></text><text class="cls-13" transform="translate(148.07 139.09)">SIGN</text><path class="cls-5" d="M159.12,89.75c-8-.88-8.4-8.64-8.4-8.64-2.74,2.34-1.33-4-1.33-4h9.73v12.6"/><path class="cls-14" d="M159.18,77.15A21.31,21.31,0,0,1,156,78.77a8.64,8.64,0,0,1-3.43.18,4.91,4.91,0,0,1-.95,1.39c-.41.27-.45-.18-.63-1.48a2.34,2.34,0,0,0-1.48-1.76c-.19-9.62,9.61-9.49,9.61-9.49Z"/><text class="cls-15" transform="translate(162.84 127.28)">UI</text></g></svg>