<svg xmlns="http://www.w3.org/2000/svg" viewBox="0 0 312 216"><defs><style>.cls-1{fill:#f2f2f2;}.cls-10,.cls-2{fill:#74cedd;}.cls-2{stroke:#020202;}.cls-10,.cls-11,.cls-13,.cls-14,.cls-15,.cls-2,.cls-3,.cls-4,.cls-7,.cls-8{stroke-miterlimit:10;}.cls-3,.cls-4,.cls-6{fill:#fff;}.cls-12,.cls-3,.cls-7{stroke:#0a0a0a;}.cls-12,.cls-13,.cls-3,.cls-4,.cls-7,.cls-8{stroke-width:0.5px;}.cls-11,.cls-4,.cls-8{stroke:#0c0c0c;}.cls-5{fill:#050708;}.cls-12,.cls-7{fill:#f7d3a2;}.cls-8{fill:#0c0c0c;}.cls-9{fill:#0a0a0a;}.cls-10{stroke:#070707;}.cls-11{fill:#73cddc;}.cls-12{stroke-linecap:round;stroke-linejoin:round;}.cls-13,.cls-14{fill:#00abd6;stroke:#00abd6;}.cls-15{fill:#02acd6;stroke:#02acd6;}</style></defs><title>iconos</title><g id="go"><path class="cls-1" d="M152.57,193.78a10.87,10.87,0,0,1-5.4-1.45L77.06,151.85a10.82,10.82,0,0,1-5.4-9.35V61.55a10.82,10.82,0,0,1,5.4-9.35l70.11-40.48a10.83,10.83,0,0,1,10.79,0L228.07,52.2a10.82,10.82,0,0,1,5.4,9.35v81a10.82,10.82,0,0,1-5.4,9.35L158,192.33A10.86,10.86,0,0,1,152.57,193.78Z"/><path class="cls-1" d="M152.57,10.78a10.21,10.21,0,0,1,5.14,1.38l70.11,40.47A10.33,10.33,0,0,1,233,61.55v81a10.33,10.33,0,0,1-5.15,8.92L157.71,191.9a10.35,10.35,0,0,1-10.29,0L77.31,151.42a10.31,10.31,0,0,1-5.15-8.92V61.55a10.33,10.33,0,0,1,5.15-8.92l70.11-40.47a10.22,10.22,0,0,1,5.15-1.38m0-1a11.29,11.29,0,0,0-5.65,1.51L76.81,51.77a11.3,11.3,0,0,0-5.65,9.78v81a11.29,11.29,0,0,0,5.65,9.78l70.11,40.48a11.31,11.31,0,0,0,11.29,0l70.11-40.48A11.27,11.27,0,0,0,234,142.5V61.55a11.28,11.28,0,0,0-5.65-9.78L158.21,11.29a11.25,11.25,0,0,0-5.64-1.51Z"/><path class="cls-2" d="M175.46,80.76c0,9.81,1.34,20.11-2.46,26.76C168.84,114.8,159.26,118,152.69,118c-7.21,0-17.22-1.9-21.39-10.44-3.1-6.36-1.38-18-1.38-26.76,0-8.59-.65-16.52.55-22.89a25.5,25.5,0,0,1,.77-3.07,17.26,17.26,0,0,1,1.68-3.73,14,14,0,0,1,2-2.54c3.37-3.49,8.92-5.63,18-5.93,7.38-.25,12.35,1.68,15.71,5.13a16.58,16.58,0,0,1,1.75,2.15,20.36,20.36,0,0,1,2,3.81,31.08,31.08,0,0,1,1.09,3.13C175.32,63.5,175.46,71.93,175.46,80.76Z"/><path class="cls-3" d="M148.56,65.65s0,2.48.61,3.35,1.33,1,2,.41a5.36,5.36,0,0,0,.87-3.29c0-1.18,0-1.24,0-1.24a24.84,24.84,0,0,1-3.09.86A.6.6,0,0,0,148.56,65.65Z"/><path class="cls-3" d="M154.87,65.57a15.07,15.07,0,0,1,.1,3.25c-.21.65-.81,1.35-1.53,1.1a2.32,2.32,0,0,1-1.63-2.08c0-1.09.18-3,.18-3a12.52,12.52,0,0,1,1.73.24A10.9,10.9,0,0,1,154.87,65.57Z"/><ellipse class="cls-4" cx="142.48" cy="54.39" rx="7.22" ry="6.63"/><ellipse class="cls-4" cx="160.48" cy="53.73" rx="7.22" ry="6.63"/><circle class="cls-5" cx="139.1" cy="54.8" r="2.24"/><ellipse class="cls-5" cx="156.81" cy="54.17" rx="2.11" ry="2.24"/><circle class="cls-6" cx="139.92" cy="55.34" r="0.82"/><ellipse class="cls-6" cx="157.68" cy="54.8" rx="0.67" ry="0.82"/><path class="cls-7" d="M148.67,61s-1.86.63-1.83,2.16.48,3.12,3.06,2.19a5.86,5.86,0,0,1,5.1.28c.66.41,4.32-.52,2.49-2.83S151.28,59,148.67,61Z"/><ellipse class="cls-8" cx="151.99" cy="60.36" rx="3.17" ry="1.98"/><path class="cls-9" d="M132.92,51.07a17.26,17.26,0,0,0-1.68,3.73,2.2,2.2,0,1,1,1.68-3.73Z"/><path class="cls-10" d="M134.88,48.53a14,14,0,0,0-2,2.54,2.2,2.2,0,1,0-1.68,3.73,25.5,25.5,0,0,0-.77,3.07,5.29,5.29,0,0,1,1.2-10.44A5.21,5.21,0,0,1,134.88,48.53Z"/><path class="cls-9" d="M173.85,51.61a2.18,2.18,0,0,1-1.51,2.08,20.36,20.36,0,0,0-2-3.81,2.19,2.19,0,0,1,3.55,1.73Z"/><path class="cls-11" d="M177.24,51.74a5.28,5.28,0,0,1-3.81,5.08,31.08,31.08,0,0,0-1.09-3.13,2.19,2.19,0,1,0-2-3.81,16.58,16.58,0,0,0-1.75-2.15A5.19,5.19,0,0,1,172,46.44,5.28,5.28,0,0,1,177.24,51.74Z"/><path class="cls-12" d="M129.76,80.39s-4.7.24-4.9,2.38,1.3.83,1.3.83-2.4,2.18.07,1.64a8.46,8.46,0,0,0,3.53-1.46Z"/><path class="cls-12" d="M175.69,80.09s4.7.25,4.9,2.39-1.3.83-1.3.83,2.41,2.18-.07,1.64a8.46,8.46,0,0,1-3.53-1.46Z"/><path class="cls-12" d="M134.44,112.33s-3.6,2.39-3.44,3.94.54,1.4.74,1.24,1.35-2,1.35-2-1.8,1.76-.78,2.61,2.22.3,3.3-.67a27.32,27.32,0,0,1,3.15-2.23Z"/><path class="cls-12" d="M166.32,114.27s3.09,2.63,3.81,3.38,2.34.36,2.27-.3a9.17,9.17,0,0,0-1.3-2.34s1.05,2.34,1.62,2.23,1.1-.88.58-1.91-1.8-3.49-2.88-3.63S166.32,114.27,166.32,114.27Z"/><path class="cls-13" d="M154.78,143.14c-.61.91-1.11,1.72-1.67,2.48a16.2,16.2,0,0,1-16.88,6.53c-9.54-2.31-12.42-11.69-8.92-19.33A17.6,17.6,0,0,1,145,122.28a12.27,12.27,0,0,1,10.57,7.44c.29.6.13.87-.49,1-2.15.53-4.29,1.11-6.43,1.67a1,1,0,0,1-1.12-.32c-4.14-4.7-10.58-1.45-12.42,2.72-1.39,3.15-.91,6.47,1.23,8.47,2.76,2.58,7.46,2.15,10-.95.36-.43,1.08-.94.89-1.38s-1-.17-1.59-.17c-1.83,0-3.66,0-5.49,0-1.23,0-1.44-.34-.94-1.48s1.11-2.31,1.61-3.49a1.67,1.67,0,0,1,1.78-1.13c3.62,0,7.25,0,10.88,0a1.67,1.67,0,0,0,1.88-1.23c3.77-8.93,12.35-12,20.11-10.57,6.69,1.24,11,7.59,10.38,14.47s-6.41,13.13-13.46,14.7c-5.94,1.33-11.14.09-15.28-4.59A13,13,0,0,1,154.78,143.14Z"/><path class="cls-14" d="M104.29,135a2,2,0,0,1,2-1.43c5.48,0,11,0,16.45,0,.33,0,1-.34,1,.29s-.23,1.1-1.11,1.1c-5,0-9.94,0-14.91,0Z"/><path class="cls-15" d="M109.74,131.37a3,3,0,0,1,2.65-1.46c4.11.07,8.22,0,12.33.05.34,0,1-.32,1,.25a1.37,1.37,0,0,1-1,1.2,1.54,1.54,0,0,1-.48,0l-13.28,0Z"/><path class="cls-15" d="M118.19,138.72c-1.15,0-2.13,0-3.28-.06-.31,0-.93.29-.9-.29a1.14,1.14,0,0,1,.91-1.11,3.72,3.72,0,0,1,.67,0h6.64c.35,0,.85-.15.8.5s0,1-.81,1C120.94,138.71,119.14,138.72,118.19,138.72Z"/><path class="cls-6" d="M177.9,136.54c0,5.92-6.73,10.13-11.43,7.91a6.64,6.64,0,0,1-3.79-7.26,8.8,8.8,0,0,1,8.35-7.36A6.53,6.53,0,0,1,177.9,136.54Z"/></g></svg>