<svg xmlns="http://www.w3.org/2000/svg" viewBox="0 0 312 216"><defs><style>.cls-1{fill:#3178c6;}.cls-2{fill:#fff;}</style></defs><title>iconos</title><g id="typescript"><rect class="cls-1" x="87.96" y="43.72" width="132" height="131.04" rx="18.72"/><polygon class="cls-2" points="118.23 105.67 118.23 116.29 134.61 116.29 134.61 163.45 147.48 163.45 147.48 116.29 163.95 116.38 163.95 105.67 118.23 105.67"/><path class="cls-2" d="M205.62,106.78v12s-4.14-4.44-13.38-4.08-16.08,7.26-.42,14,17.46,12.24,16,21.12-8.59,15.71-27.72,13.65a34.34,34.34,0,0,1-10.8-2.37V147.94s4.26,6.24,14.82,6,14.46-6.42,5.4-12.24-19.2-4.56-20.64-20.58,20.58-19.56,33.9-15.45C203.52,105.89,205.62,106.78,205.62,106.78Z"/></g></svg>