<svg xmlns="http://www.w3.org/2000/svg" viewBox="0 0 312 216"><defs><style>.cls-1{fill:#f2f2f2;}.cls-2{fill:#f2bb30;stroke:#f2bb30;}.cls-2,.cls-3{stroke-miterlimit:10;}.cls-3{fill:#35668f;stroke:#35668f;}.cls-4{fill:#fff;}</style></defs><title>iconos</title><g id="python"><path class="cls-1" d="M162.6,201a10.79,10.79,0,0,1-5.4-1.45L87.09,159.06a10.81,10.81,0,0,1-5.4-9.34v-81a10.81,10.81,0,0,1,5.4-9.34L157.2,18.94a10.76,10.76,0,0,1,10.79,0L238.1,59.42a10.81,10.81,0,0,1,5.4,9.34v81a10.81,10.81,0,0,1-5.4,9.34L168,199.54A10.73,10.73,0,0,1,162.6,201Z"/><path class="cls-1" d="M162.6,18a10.31,10.31,0,0,1,5.14,1.38l70.11,40.48A10.31,10.31,0,0,1,243,68.76v81a10.31,10.31,0,0,1-5.15,8.91l-70.11,40.48a10.28,10.28,0,0,1-10.29,0L87.34,158.63a10.32,10.32,0,0,1-5.14-8.91v-81a10.32,10.32,0,0,1,5.14-8.91l70.11-40.48A10.32,10.32,0,0,1,162.6,18m0-1A11.39,11.39,0,0,0,157,18.5L86.84,59a11.3,11.3,0,0,0-5.64,9.78v81a11.3,11.3,0,0,0,5.64,9.78L157,200a11.31,11.31,0,0,0,11.29,0l70.11-40.48a11.29,11.29,0,0,0,5.65-9.78v-81A11.29,11.29,0,0,0,238.35,59L168.24,18.5A11.33,11.33,0,0,0,162.6,17Z"/><path class="cls-2" d="M184.92,131.53c-5.51,0-11,.06-16.54,0-1.39,0-1.8.41-1.58,1.68a1.13,1.13,0,0,1,0,.26c-.13.81.15,1.11,1,1.07,1.84-.07,3.67,0,5.51,0,5.22,0,10.43,0,15.64,0,1.05,0,1.27.32,1.24,1.29-.07,2.34-.08,4.7,0,7a10.65,10.65,0,0,1-5.31,9.73,29.47,29.47,0,0,1-10.51,3.81,38.61,38.61,0,0,1-22.48-2.14,17,17,0,0,1-5-3.08,10.23,10.23,0,0,1-3.6-7.9c0-7.31-.07-14.61,0-21.92.08-7.07,5.26-12.06,12.36-12.07q11,0,21.92,0a15,15,0,0,0,15.49-15.41c0-3,0-5.9,0-8.85,0-.82.2-1.09,1.07-1.07,2.52.06,5,0,7.56,0a10.26,10.26,0,0,1,9.52,5.6c1.74,3,2.46,6.43,3.19,9.81A38.44,38.44,0,0,1,212,124c-.35.77-.73,1.53-1.15,2.28a9.75,9.75,0,0,1-9.13,5.29C196.11,131.51,190.52,131.53,184.92,131.53Z"/><path class="cls-3" d="M149.77,83.91c5.3,0,10.6,0,15.9,0,1.2,0,1.21-.54,1.13-1.37s.39-1.67-1.13-1.66c-7,.08-14,0-21,.06-1,0-1.4-.23-1.35-1.32.12-3.33-.07-6.66.14-10a8.94,8.94,0,0,1,6.21-8.39,38.68,38.68,0,0,1,10.88-2.14,67.15,67.15,0,0,1,18.88.9c5.64,1.15,9.71,5.16,10.64,10.3a10.11,10.11,0,0,1,.13,1.65c0,7.48,0,15,0,22.44a11.71,11.71,0,0,1-9.88,11.65,14,14,0,0,1-2.43.14c-7.39,0-14.78,0-22.18,0a14.83,14.83,0,0,0-15.12,12.88c-.46,3.17-.1,6.4-.13,9.6,0,2.82,0,2.82-2.87,2.82-1.49,0-3,0-4.48,0-5.55.12-9.42-2.5-11.6-7.45a43.55,43.55,0,0,1-.84-30.54,14.15,14.15,0,0,1,13.49-9.61c5.22-.08,10.43,0,15.64,0Z"/><path class="cls-4" d="M184.32,145a4.38,4.38,0,1,1-4.36-4.52A4.36,4.36,0,0,1,184.32,145Z"/><path class="cls-4" d="M153.51,75a4.43,4.43,0,0,1-4.34-4.44,4.48,4.48,0,0,1,4.47-4.46A4.43,4.43,0,0,1,158,70.53,4.35,4.35,0,0,1,153.51,75Z"/></g></svg>