<svg xmlns="http://www.w3.org/2000/svg" viewBox="0 0 312 216"><defs><style>.cls-1{fill:#777bb3;}.cls-2{fill:#020202;}</style></defs><title>iconos</title><g id="php"><path class="cls-1" d="M152.91,158a153.28,153.28,0,0,1-66.69-16.92c-10-5.23-18.92-11.78-25-21.54-8.75-14-6.83-29.48,5.16-42C76.46,67,89,60.37,102.58,55.57,119,49.75,136.05,47,153.5,46.11c26.56-1.32,52.32,1.85,77,12.06,10.94,4.53,20.94,10.57,29.1,19.34,14,15.08,14,33.89-.2,48.87-11.11,11.75-25.2,18.43-40.25,23.41C202.32,155.36,182.87,158.14,152.91,158Zm-12.28-47.71c.36,2.31-.56,4.45-.86,6.63-.37,2.64.69,3.86,3.31,3.85,3,0,6-.15,9,0s4.32-1.24,4.82-4c1.18-6.59,2.53-13.16,3.72-19.75,1.68-9.2,1.65-9.21,10.9-8.55l.36,0c2.2,0,3,1.07,2.75,3.17-.17,1.19-.3,2.38-.53,3.56-1.39,7.28-2.74,14.58-4.23,21.84-.54,2.62.62,3.62,3,3.68a80.12,80.12,0,0,0,8.63,0c3.18-.25,4.47.52,3.35,3.94-.75,2.25-.87,4.7-1.44,7-.66,2.69.5,3.94,3,4,3,.11,6-.1,9,.08,3.24.2,4.81-1,5.23-4.34s.29-7.83,2.33-9.9c2.28-2.32,6.83-.61,10.39-.79,13.56-.71,22.89-7.06,26.66-18.66,4.8-14.72-1.36-26.68-17.34-27.34-8.39-.35-16.8-.19-25.19-.26-2.21,0-3.22,1.18-3.6,3.23s-.34,4.41-1.69,6.47c-3.07-6.32-6.64-8.77-13.55-9.27a86.83,86.83,0,0,0-10.06-.37c-3,.12-3.54-1.07-2.91-3.62.51-2.09.93-4.2,1.33-6.32.78-4.25.26-4.88-4-4.91a74.67,74.67,0,0,1-7.92-.06c-3.43-.38-4.62,1.26-5.16,4.33-1.38,7.84-3,15.65-4.62,24.22-3.19-9.22-9.61-12.84-18.26-13.42-8.4-.57-16.8-.12-25.19-.29-2.44,0-3.53,1-4,3.54C94.67,95,91.26,111.87,88,128.78c-1.34,7-1.26,7,5.91,7,9.62,0,9.62,0,11.6-9.16,1.26-5.82,1.27-5.94,7.15-5.79,10.49.27,20.07-1.68,27.13-10.35C139.88,110.35,140.2,110.39,140.63,110.32Z"/><path class="cls-2" d="M211.69,77c4.42.29,9.69-.46,14.93.63,8.09,1.7,12.61,7.13,12.57,15.45a24.63,24.63,0,0,1-24.24,25c-3.83.11-7.67.14-11.5,0-1.95,0-3,.22-3.26,2.57-.39,3.55-1.4,7-2,10.55-.21,1.24-.44,2-1.9,2-3,0-6-.07-9,0-2.19,0-1.47-1.38-1.27-2.42q2.49-13,5.05-26c1.63-8.32,3.31-16.62,4.83-24.95.39-2.1,1.05-3.07,3.43-2.93C203.17,77.21,207,77,211.69,77Zm-2.89,32.42c12.84.73,17.43-5.71,17.54-16.72,0-3.5-1.86-5.46-5.16-6.32-4.25-1.11-8.57-.48-12.86-.67-1.35-.06-1.41.81-1.6,1.82q-1.42,7.74-3,15.45C202.4,109.46,202.37,109.46,208.8,109.46Z"/><path class="cls-2" d="M114.84,77c3.48,0,7,0,10.43,0,13.74.18,20.49,9.09,17,22.43-3,11.3-11.69,18.31-23.33,18.65-4,.11-7.91.11-11.86,0-1.67,0-2.54.27-2.8,2.21-.46,3.54-1.33,7-2,10.55-.29,1.59-.85,2.55-2.8,2.37a32.39,32.39,0,0,0-6.82,0c-2.94.36-3-1.06-2.55-3.24,3-15.1,5.9-30.21,8.94-45.3C100.62,77,100.71,77,108.73,77Zm-1.93,32.42c11.9.66,17.17-4.73,17.47-16.58.09-3.45-1.8-5.53-5.11-6.44-3.78-1-7.64-.41-11.45-.74-2.36-.21-3.09.82-3.45,2.86-.86,4.82-1.83,9.62-2.8,14.42C106.26,109.46,106.24,109.46,112.91,109.46Z"/><path class="cls-2" d="M142,118.2c3.59-18.27,7.15-36.28,10.62-54.31.27-1.4.55-2,2.14-2,3.34.13,6.69,0,10.27,0-.86,4.41-1.55,8.62-2.55,12.77-.5,2.07.15,2.35,2,2.37,5.26.07,10.54-.45,15.78.56,7.34,1.41,10.46,4.92,9.39,12.17-1.32,9-3.35,17.82-5,26.74-.26,1.42-.85,1.81-2.11,1.65a5.77,5.77,0,0,0-.72,0c-3.1-.07-7.62,1.06-9-.51-1.69-2,.59-6,1.15-9.07.94-5.28,2.13-10.53,3.07-15.82.8-4.49-.5-6.29-5.06-6.71-3.33-.31-6.71-.1-10.06-.21-1.7-.06-1.79,1-2,2.25-1.64,8.8-3.45,17.57-5,26.38-.48,2.7-1.27,4.21-4.47,3.76A64.1,64.1,0,0,0,142,118.2Z"/><path class="cls-1" d="M215,88.32c9.09.06,11,3,7.83,11.59-1.48,4-4.14,6.36-8.39,6.78-2.38.24-4.78.35-7.17.52-1.31.09-2-.2-1.61-1.82,1.06-4.91,2-9.85,2.88-14.79.31-1.68,1-2.53,2.86-2.31A28.82,28.82,0,0,0,215,88.32Z"/><path class="cls-1" d="M118.88,88.32c9.21.09,11,2.68,8,11.42-1.86,5.35-5.25,7.38-12.84,7.45-4.89,0-5.06.61-3.85-4.51.69-2.89,1.1-5.85,1.67-8.77C113,88.26,113,88.27,118.88,88.32Z"/></g></svg>