<svg xmlns="http://www.w3.org/2000/svg" viewBox="0 0 312 216"><defs><style>.cls-1{fill:#f2f2f2;}.cls-2,.cls-3{fill:none;stroke-linecap:round;stroke-linejoin:round;stroke-width:0.5px;}.cls-2{stroke:#1c1c1c;}.cls-3{stroke:#000;}.cls-4{font-size:61.39px;font-family:NewsGothicBT-Roman, NewsGoth BT;}</style></defs><title>iconos</title><g id="uxResearch"><path class="cls-1" d="M145.88,199.75a10.79,10.79,0,0,1-5.4-1.45L70.37,157.83A10.83,10.83,0,0,1,65,148.48v-81a10.83,10.83,0,0,1,5.39-9.35L140.48,17.7a10.78,10.78,0,0,1,10.8,0l70.11,40.47a10.83,10.83,0,0,1,5.39,9.35v81a10.83,10.83,0,0,1-5.39,9.35L151.28,198.3A10.79,10.79,0,0,1,145.88,199.75Z"/><path class="cls-1" d="M145.88,16.75A10.38,10.38,0,0,1,151,18.13l70.11,40.48a10.32,10.32,0,0,1,5.14,8.91v81a10.32,10.32,0,0,1-5.14,8.91L151,197.87a10.3,10.3,0,0,1-10.3,0L70.62,157.39a10.32,10.32,0,0,1-5.14-8.91v-81a10.32,10.32,0,0,1,5.14-8.91l70.11-40.48a10.38,10.38,0,0,1,5.15-1.38m0-1a11.39,11.39,0,0,0-5.65,1.51L70.12,57.74a11.3,11.3,0,0,0-5.64,9.78v81a11.3,11.3,0,0,0,5.64,9.78l70.11,40.48a11.33,11.33,0,0,0,11.3,0l70.11-40.48a11.3,11.3,0,0,0,5.64-9.78v-81a11.3,11.3,0,0,0-5.64-9.78L151.53,17.26a11.39,11.39,0,0,0-5.65-1.51Z"/><path class="cls-2" d="M170.81,132.44a1.33,1.33,0,1,0,1.33,1.33A1.34,1.34,0,0,0,170.81,132.44Zm-4.14,0a1.33,1.33,0,1,0,1.33,1.33A1.34,1.34,0,0,0,166.67,132.44Zm-4,0a1.33,1.33,0,1,0,1.33,1.33A1.34,1.34,0,0,0,162.62,132.44Zm-.16-9.46a1.33,1.33,0,1,0,1.33,1.33A1.33,1.33,0,0,0,162.46,123Zm4,0a1.33,1.33,0,1,0,1.33,1.33A1.34,1.34,0,0,0,166.51,123Zm4.14,0a1.33,1.33,0,1,0,1.33,1.33A1.34,1.34,0,0,0,170.65,123Z"/><path class="cls-2" d="M195.56,55.35V163.89a8.58,8.58,0,0,1-8.55,8.55H160.58v-3.77a5.1,5.1,0,0,0,0-10v-2.44H187a3,3,0,0,0,3-3V62.73a3,3,0,0,0-3-3H160.58V55.32H174.2a2.1,2.1,0,1,0,0-4.2H160.58V46.8H187A8.58,8.58,0,0,1,195.56,55.35Z"/><path class="cls-2" d="M164.67,163.68a5.1,5.1,0,0,1-4.09,5v-10A5.11,5.11,0,0,1,164.67,163.68Z"/><path class="cls-2" d="M163.79,124.31a1.33,1.33,0,1,1-1.33-1.33A1.32,1.32,0,0,1,163.79,124.31Z"/><path class="cls-2" d="M167.84,124.31a1.33,1.33,0,1,1-1.33-1.33A1.32,1.32,0,0,1,167.84,124.31Z"/><path class="cls-2" d="M172,124.31a1.33,1.33,0,1,1-1.33-1.33A1.32,1.32,0,0,1,172,124.31Z"/><path class="cls-2" d="M164,133.77a1.33,1.33,0,1,1-1.33-1.33A1.34,1.34,0,0,1,164,133.77Z"/><path class="cls-2" d="M168,133.77a1.33,1.33,0,1,1-1.33-1.33A1.34,1.34,0,0,1,168,133.77Z"/><path class="cls-2" d="M172.14,133.77a1.33,1.33,0,1,1-1.33-1.33A1.34,1.34,0,0,1,172.14,133.77Z"/><path class="cls-2" d="M176.3,53.22a2.12,2.12,0,0,1-2.1,2.1H160.58v-4.2H174.2A2.1,2.1,0,0,1,176.3,53.22Z"/><path class="cls-2" d="M187,59.76H160.58v8.85a22.84,22.84,0,0,1,0,45.64v6.17h15v7h-15v2.88h15v6.48h-15v3.3h7.65a3.75,3.75,0,0,1,0,7.5h-7.65v8.64H187a3,3,0,0,0,3-3V62.73A3,3,0,0,0,187,59.76Zm-3.69,77h-6.93v-6.48h6.93Zm0-9.09h-6.57v-7.29h6.57Z"/><path class="cls-2" d="M160.58,120.42v7h15v-7Zm1.88,5.22a1.33,1.33,0,1,1,1.33-1.33A1.32,1.32,0,0,1,162.46,125.64Zm4,0a1.33,1.33,0,1,1,1.33-1.33A1.33,1.33,0,0,1,166.51,125.64Zm4.14,0a1.33,1.33,0,1,1,1.33-1.33A1.33,1.33,0,0,1,170.65,125.64Z"/><path class="cls-2" d="M163.79,124.31a1.33,1.33,0,1,1-1.33-1.33A1.32,1.32,0,0,1,163.79,124.31Z"/><path class="cls-2" d="M167.84,124.31a1.33,1.33,0,1,1-1.33-1.33A1.32,1.32,0,0,1,167.84,124.31Z"/><path class="cls-2" d="M172,124.31a1.33,1.33,0,1,1-1.33-1.33A1.32,1.32,0,0,1,172,124.31Z"/><path class="cls-2" d="M160.58,130.32v6.48h15v-6.48Zm2,4.78a1.33,1.33,0,1,1,1.33-1.33A1.34,1.34,0,0,1,162.62,135.1Zm4,0a1.33,1.33,0,1,1,1.33-1.33A1.34,1.34,0,0,1,166.67,135.1Zm4.14,0a1.33,1.33,0,1,1,1.33-1.33A1.34,1.34,0,0,1,170.81,135.1Z"/><path class="cls-2" d="M164,133.77a1.33,1.33,0,1,1-1.33-1.33A1.34,1.34,0,0,1,164,133.77Z"/><path class="cls-2" d="M168,133.77a1.33,1.33,0,1,1-1.33-1.33A1.34,1.34,0,0,1,168,133.77Z"/><path class="cls-2" d="M172.14,133.77a1.33,1.33,0,1,1-1.33-1.33A1.34,1.34,0,0,1,172.14,133.77Z"/><path class="cls-2" d="M182.42,91.43a22.84,22.84,0,0,1-21.84,22.82V68.61A22.84,22.84,0,0,1,182.42,91.43Z"/><rect class="cls-2" x="176.75" y="120.42" width="6.57" height="7.29"/><rect class="cls-2" x="176.39" y="130.32" width="6.93" height="6.48"/><path class="cls-2" d="M172,143.85a3.76,3.76,0,0,1-3.75,3.75h-7.65v-2.52h8.1a1.08,1.08,0,0,0,0-2.16h-8.1V140.1h7.65A3.76,3.76,0,0,1,172,143.85Z"/><path class="cls-2" d="M169.76,144a1.09,1.09,0,0,1-1.08,1.08h-8.1v-2.16h8.1A1.09,1.09,0,0,1,169.76,144Z"/><path class="cls-2" d="M163.79,124.31a1.33,1.33,0,1,1-1.33-1.33A1.32,1.32,0,0,1,163.79,124.31Z"/><path class="cls-2" d="M167.84,124.31a1.33,1.33,0,1,1-1.33-1.33A1.32,1.32,0,0,1,167.84,124.31Z"/><path class="cls-2" d="M172,124.31a1.33,1.33,0,1,1-1.33-1.33A1.32,1.32,0,0,1,172,124.31Z"/><path class="cls-2" d="M164,133.77a1.33,1.33,0,1,1-1.33-1.33A1.34,1.34,0,0,1,164,133.77Z"/><path class="cls-2" d="M168,133.77a1.33,1.33,0,1,1-1.33-1.33A1.34,1.34,0,0,1,168,133.77Z"/><path class="cls-2" d="M172.14,133.77a1.33,1.33,0,1,1-1.33-1.33A1.34,1.34,0,0,1,172.14,133.77Z"/><path class="cls-3" d="M160.58,84.31l3.89-3.15s1.18,4.23,1.72,4.77,2.16-2,2.16-2c.27-5.94-4.5-7-4.5-7-.27-1.62-3.27-2.52-3.27-2.52"/><path class="cls-3" d="M160.58,96.1s5.52-1.44,7-6.93c0,0-1.12-2.92-.59-3.48s1.58-2.64,2-1.65a3.72,3.72,0,0,1-1.44,5.13"/><path class="cls-3" d="M162.63,95.74v4l-2,2.16V97S160.14,95.92,162.63,95.74Z"/><path class="cls-3" d="M172.64,110.17s-3.23-9.93-10-10.47l-2,2.16v12.39S167.57,114.07,172.64,110.17Z"/><rect class="cls-3" x="195.56" y="62.71" width="1.32" height="11.7" rx="0.66"/><rect class="cls-3" x="195.56" y="77.47" width="1.32" height="12.47" rx="0.66"/><text class="cls-4" transform="translate(72.92 129.48)">UX</text></g></svg>