<svg xmlns="http://www.w3.org/2000/svg" xmlns:xlink="http://www.w3.org/1999/xlink" viewBox="0 0 312 216"><defs><style>.cls-1{fill:url(#linear-gradient);}.cls-2{fill:url(#linear-gradient-2);}.cls-3{fill:#fff;}</style><linearGradient id="linear-gradient" x1="91.26" y1="107.37" x2="220.33" y2="107.37" gradientUnits="userSpaceOnUse"><stop offset="0" stop-color="#f04c33"/><stop offset="0.42" stop-color="#f25c35"/><stop offset="1" stop-color="#faa841"/></linearGradient><linearGradient id="linear-gradient-2" x1="97" y1="115.32" x2="159.58" y2="55.13" xlink:href="#linear-gradient"/></defs><title>iconos</title><g id="swift"><rect class="cls-1" x="91.26" y="42.84" width="129.07" height="129.07" rx="12"/><path class="cls-2" d="M104.6,118.68,91.26,103.8v-49s.37-12,13.34-12h40.8l18.9,19S188,84,172.94,109s-27.67,26-38.4,24.06S104.6,118.68,104.6,118.68Z"/><path class="cls-3" d="M200.51,148.13c-.17-.19-.37-.45-.57-.71a34.78,34.78,0,0,0-4.3-4.65,13.12,13.12,0,0,0-8.46-2.84,11.15,11.15,0,0,0-4.73.95c-1.57.74-2.95,1.42-4.21,2.05-5.27,2.62-8.45,4.2-15.09,4.77-2,.17-4,.26-6,.26h0c-30.84,0-47-21.49-51.07-27.79,11.75,7,23,10.5,33.41,10.5,13.05,0,20-5.55,20.26-5.78l.51-.42-.54-.38c-16.63-11.65-35.63-35.9-42.64-45.24,7.36,6.41,24.55,21,35.46,26.48l2.35,1.18-1.75-2c-.18-.21-16.85-19-24.75-31.18,5.45,5.11,19.2,17.37,44.24,36.05l.51.38.25-.58c.1-.23,9.21-22.18-7.08-45.45,8.43,5.78,36.8,28,26.66,59l-.08.26.17.22A44.39,44.39,0,0,1,200,135.72,24.3,24.3,0,0,1,200.51,148.13Z"/><path class="cls-3" d="M168.22,65.72a81.73,81.73,0,0,1,14.45,13.52c11.41,13.84,14.72,28.41,9.84,43.33l-.17.52.34.42a44.37,44.37,0,0,1,6.85,12.36,23.77,23.77,0,0,1,.7,11.11,35.2,35.2,0,0,0-4.25-4.59,13.72,13.72,0,0,0-8.8-3,11.72,11.72,0,0,0-5,1c-1.57.74-3,1.44-4.21,2-5.22,2.59-8.37,4.16-14.92,4.72-2,.17-4,.26-5.93.26a59.16,59.16,0,0,1-39.33-14.59,63.55,63.55,0,0,1-10.14-11.19c11.15,6.29,21.84,9.48,31.8,9.48,13.23,0,20.28-5.65,20.57-5.89l1-.83-1.08-.76c-14.62-10.25-31.11-30.3-39.58-41.28,8.41,7.19,22.36,18.54,31.9,23.37l4.69,2.38-3.49-3.93c-.17-.19-13.87-15.64-22.3-27.57,6.86,6.19,20,17.4,41.11,33.17l1,.76.5-1.17a42.84,42.84,0,0,0,2.71-14.91,51.64,51.64,0,0,0-8.35-28.78m-3.92-3.86C182.84,86,172.94,109,172.94,109c-34-25.38-47-38.7-47-38.7,6.66,11.88,26.82,34.56,26.82,34.56-14.22-7.2-38.88-29.52-38.88-29.52s24.48,34.38,45.54,49.14c0,0-6.92,5.66-19.94,5.66-8.88,0-20.6-2.63-34.9-11.48,0,0,15.86,29.78,52.57,29.78q2.91,0,6-.26c8.37-.72,11.46-3.09,19.47-6.87a10.7,10.7,0,0,1,4.52-.9,12.68,12.68,0,0,1,8.13,2.71c3.59,3.22,4.84,5.76,5.37,5.76.11,0,.19-.12.25-.37a24.75,24.75,0,0,0-.45-13,45,45,0,0,0-7-12.69c12.06-36.84-29.16-61-29.16-61Z"/></g></svg>