<svg xmlns="http://www.w3.org/2000/svg" viewBox="0 0 312 216"><defs><style>.cls-1{fill:#f2f2f2;}.cls-2{fill:#7f7f7f;}.cls-3{fill:#6d6d6d;}.cls-4{fill:#3a3a3a;}</style></defs><title>iconos</title><g id="unity"><path class="cls-1" d="M150.87,162.7a10.89,10.89,0,0,1-5.4-1.44L98.11,133.92a10.85,10.85,0,0,1-5.39-9.35V69.88a10.83,10.83,0,0,1,5.39-9.34l47.36-27.35a10.85,10.85,0,0,1,10.8,0l47.35,27.35a10.81,10.81,0,0,1,5.4,9.34v54.69a10.84,10.84,0,0,1-5.4,9.35l-47.35,27.34A10.89,10.89,0,0,1,150.87,162.7Z"/><path class="cls-1" d="M150.87,32.25A10.27,10.27,0,0,1,156,33.63L203.37,61a10.31,10.31,0,0,1,5.15,8.91v54.69a10.31,10.31,0,0,1-5.15,8.91L156,160.83a10.36,10.36,0,0,1-10.3,0L98.36,133.48a10.32,10.32,0,0,1-5.14-8.91V69.88A10.32,10.32,0,0,1,98.36,61l47.36-27.34a10.27,10.27,0,0,1,5.15-1.38m0-1a11.29,11.29,0,0,0-5.65,1.51L97.86,60.1a11.3,11.3,0,0,0-5.64,9.78v54.69a11.3,11.3,0,0,0,5.64,9.78l47.36,27.34a11.33,11.33,0,0,0,11.3,0l47.35-27.34a11.29,11.29,0,0,0,5.65-9.78V69.88a11.29,11.29,0,0,0-5.65-9.78L156.52,32.76a11.29,11.29,0,0,0-5.65-1.51Z"/><path class="cls-2" d="M109.69,69.91l10.25-6,26.54-15.33.72-.39a1.12,1.12,0,0,1,.1.72c0,5.08,0,10.17,0,15.25a1.15,1.15,0,0,1-.66,1.13q-6.9,3.94-13.77,7.93c-1.11.64-1.11,1.19,0,1.84q8.46,4.89,16.92,9.79a2,2,0,0,0,2.14,0q8.46-4.91,16.92-9.78c1.12-.64,1.12-1.19,0-1.84q-6.91-4-13.83-8a.9.9,0,0,1-.55-.87q0-7.9,0-15.79c0-.11,0-.21,0-.42.86.49,1.66.94,2.46,1.41l34.71,20c.18.11.44.15.51.41a1.83,1.83,0,0,1-.86.72q-7.73,4.44-15.43,8.9c-7.46,4.3-14.9,8.63-22.36,12.9A11.44,11.44,0,0,1,150.89,94a25.06,25.06,0,0,1-3.33-1.83Q132.77,83.64,118,75.09c-2.54-1.46-5.07-2.91-7.59-4.4C110.1,70.51,109.66,70.42,109.69,69.91Z"/><path class="cls-3" d="M109.69,69.91a11,11,0,0,0,2.67,1.7q8.22,4.78,16.46,9.53L144.19,90c2.24,1.29,4.47,2.6,6.71,3.9a2,2,0,0,1,.23,1.39v33.9c0,3.73,0,7.47,0,11.2a1.76,1.76,0,0,1-.25,1.24c-2-1-4-2.23-5.94-3.36l-31.24-18c-.18-.1-.34-.21-.58-.36l5-2.88c3-1.71,5.94-3.41,8.89-5.15a1.11,1.11,0,0,1,1.3,0q6.9,4,13.83,8c1,.55,1.51.26,1.52-.84V99.24a1.86,1.86,0,0,0-1-1.74l-17.13-9.89c-.92-.53-1.46-.2-1.46.86v16.17c0,.36,0,.63-.41.86-4.6,2.63-9.19,5.29-13.78,7.94-.06,0-.13.06-.23.11-.18-.23-.1-.49-.1-.72q0-21.09,0-42.18C109.52,70.41,109.34,70.09,109.69,69.91Z"/><path class="cls-4" d="M150.88,141.62q0-23.34,0-46.67c0-.35,0-.71,0-1.07,3.74-2.15,7.49-4.29,11.23-6.45l22.3-12.87,7.79-4.5c0,.23,0,.46,0,.68q0,21,0,42a1.33,1.33,0,0,1-.1.79l-4.74-2.73c-3-1.72-6-3.46-9-5.16a1.18,1.18,0,0,1-.7-1.18c0-5.26,0-10.53,0-15.79,0-.45.07-.94-.41-1.23s-.86,0-1.26.26c-5.47,3.16-10.93,6.35-16.43,9.46a2.69,2.69,0,0,0-1.54,2.68c0,6.25,0,12.5,0,18.76a4.83,4.83,0,0,0,0,.76c.12.72.67.93,1.38.52Q163,118,166.34,116c2.42-1.4,4.84-2.79,7.25-4.2a.92.92,0,0,1,1-.06c4.56,2.66,9.13,5.29,13.7,7.93a3.08,3.08,0,0,1,.3.24l-5.09,2.95-32,18.49C151.3,141.45,151.14,141.64,150.88,141.62Z"/></g></svg>