<svg xmlns="http://www.w3.org/2000/svg" viewBox="0 0 312 216"><defs><style>.cls-1{fill:none;stroke:#000;stroke-miterlimit:10;}.cls-2{fill:#3880ff;}</style></defs><title>iconos</title><g id="ionic"><path class="cls-1" d="M209.14,88.05h.06"/><path class="cls-2" d="M209.14,88.05A51.79,51.79,0,1,1,184,61.34a.4.4,0,0,0,.55-.22c1.5-4,3.52-7.1,6.92-9.42a.51.51,0,0,0,0-.87c-9.23-5.12-19.11-8.39-30.44-8.39a64.88,64.88,0,1,0,64.88,64.88c0-9.26-2.56-18-6.09-25.95a.49.49,0,0,0-.82-.14c-3,3.41-9.87,6.84-9.83,6.82"/><circle class="cls-2" cx="161" cy="108.89" r="29.61"/><circle class="cls-2" cx="202.73" cy="67.94" r="13.37"/></g></svg>