<svg xmlns="http://www.w3.org/2000/svg" viewBox="0 0 312 216"><defs><style>.cls-1{fill:#7f7f7f;}.cls-2{fill:#383838;}.cls-3{fill:#3a3a3a;}.cls-4{fill:#242424;}.cls-5{fill:#272727;}.cls-6{fill:#00007f;}.cls-7{fill:#fefefe;}.cls-8{fill:navy;}</style></defs><title>iconos</title><g id="lua"><path class="cls-1" d="M90.85,95.27a4.63,4.63,0,0,0,.25-1.65c.13-1,.23-2,.3-3,0-.49.32-.51.65-.41s.94-.16.86.55c-.19,1.55-.38,3.09-.43,4.65,0,.38-.2.46-.53.43s-.73,0-1.1,0Z"/><path class="cls-1" d="M221.15,96.92c-1.57,0-1.58,0-1.63-1.55a31.15,31.15,0,0,0-.3-3.34c-.12-.9.6-.6,1-.72s.5.27.52.61c.09,1.11.19,2.23.28,3.34,0,.11,0,.23.14.29Z"/><path class="cls-1" d="M153.59,34.05c.23.35.11.75.16,1.13s-.12.38-.4.4c-1.53.12-3.06.24-4.58.39-.87.09-.52-.61-.65-1s.17-.5.53-.53c1.14-.08,2.28-.18,3.42-.28.11,0,.23,0,.28-.13Z"/><path class="cls-1" d="M91,101.47c1.37,0,1.4,0,1.46,1.3a36.11,36.11,0,0,0,.31,3.61c.13.85-.53.59-.92.7s-.57-.13-.59-.54c-.07-1.05-.18-2.1-.27-3.14,0-.12,0-.23-.14-.29v-.41C91,102.31,90.8,101.86,91,101.47Z"/><path class="cls-1" d="M158.27,164.34c0-1.53,0-1.52,1.5-1.63,1.16-.08,2.32-.18,3.47-.29.87-.09.5.62.64,1s-.19.49-.54.53a20.15,20.15,0,0,0-3.28.41h-.41a2.37,2.37,0,0,0-1.24,0Z"/><path class="cls-2" d="M91,101.47c-.13.4.17.85-.15,1.23v-1.24Z"/><path class="cls-3" d="M158.41,164.34a1.27,1.27,0,0,1,1.24,0Z"/><path class="cls-4" d="M159.39,34.21l0-.16h.69s0,.07,0,.11A.44.44,0,0,1,159.39,34.21Z"/><path class="cls-5" d="M152.6,164.17l0,.17h-.69a.49.49,0,0,0,0-.12A.44.44,0,0,1,152.6,164.17Z"/><path class="cls-6" d="M156,149A49.83,49.83,0,1,1,205.8,99.2,49.82,49.82,0,0,1,156,149Z"/><path class="cls-6" d="M220.35,49.37A14.61,14.61,0,0,1,205.79,64a14.58,14.58,0,1,1,0-29.16A14.59,14.59,0,0,1,220.35,49.37Z"/><path class="cls-1" d="M203.57,143.68l-.27.31c-1.11,1.09-2.23,2.17-3.32,3.27-.29.29-.5.36-.74,0a2.05,2.05,0,0,0-.37-.41c-.22-.2-.27-.36,0-.6,1.18-1.08,2.34-2.18,3.42-3.36.17-.19.31-.24.5,0S203.4,143.29,203.57,143.68Z"/><path class="cls-1" d="M159.39,34.21l.68-.05c1.5.15,3,.31,4.5.43.41,0,.55.24.42.57s.21,1-.54.94c-1.57-.17-3.13-.36-4.71-.43-.29,0-.4-.14-.38-.43S159.38,34.56,159.39,34.21Z"/><path class="cls-1" d="M141.6,161.57c-.12,1.08-.19,1.12-1.25.87-1.32-.31-2.61-.71-3.9-1.08-.46-.13-.6-.27-.43-.74.4-1.08.21-.89,1.21-.62l4,1.12C141.44,161.19,141.72,161.21,141.6,161.57Z"/><path class="cls-1" d="M108.68,141.8l.33.31c1.06,1.13,2.11,2.27,3.27,3.31.29.25.26.47,0,.64s-.4,1-.92.52a47.28,47.28,0,0,1-3.52-3.56c-.14-.16-.21-.28,0-.45S108.38,142.07,108.68,141.8Z"/><path class="cls-1" d="M170.37,36.92c0-.14,0-.19.06-.23.2-1,.19-1,1.19-.75,1.34.32,2.65.73,4,1.13.39.11.64.26.39.68s0,1-.81.76c-1.41-.44-2.86-.79-4.29-1.2C170.64,37.25,170.25,37.28,170.37,36.92Z"/><path class="cls-1" d="M131.41,38.85c.38,0,.31.38.45.58.36.56.18.83-.43,1.07-1.3.53-2.59,1.13-3.85,1.76-.76.38-.66-.33-.89-.62s-.2-.55.22-.76c1.36-.65,2.71-1.3,4.11-1.87A3.52,3.52,0,0,1,131.41,38.85Z"/><path class="cls-1" d="M93.68,84.8l-.21-.06c-1-.18-1-.18-.72-1.14.31-1.36.72-2.69,1.11-4,.12-.45.28-.52.7-.36.88.32.88.3.62,1.21-.37,1.3-.72,2.6-1.08,3.9C94,84.57,94,84.92,93.68,84.8Z"/><path class="cls-1" d="M169.75,162.87s-.15,0-.18-.05a2.51,2.51,0,0,1-.26-1.19c0-.3.39-.25.61-.31,1.39-.38,2.79-.71,4.17-1.11.87-.26.6.49.8.81s.05.54-.35.65C173,162.11,171.41,162.52,169.75,162.87Z"/><path class="cls-1" d="M152.6,164.17l-.67.05c-1.5-.14-3-.3-4.5-.43-.41,0-.55-.23-.43-.56s-.2-1,.55-.94c1.56.18,3.13.36,4.7.42.29,0,.41.14.39.43S152.61,163.83,152.6,164.17Z"/><path class="cls-1" d="M221,103.62c-.13,1.26-.3,2.69-.42,4.12,0,.46-.26.57-.62.45s-1,.17-.89-.59a42.52,42.52,0,0,0,.42-4.5c0-.82.59-.48,1-.53s.61.17.54.6A3.08,3.08,0,0,0,221,103.62Z"/><path class="cls-1" d="M101.89,133c.23,0,.27.15.35.27.9,1.3,1.79,2.61,2.7,3.9.17.25.13.37-.08.56-.84.73-.84.74-1.46-.14-.75-1.07-1.45-2.17-2.24-3.22-.41-.54-.35-.85.27-1.09A4.34,4.34,0,0,0,101.89,133Z"/><path class="cls-1" d="M207.25,139.24a8.26,8.26,0,0,1-1-.82c-.17-.2.14-.39.27-.57.84-1.19,1.72-2.36,2.54-3.58.45-.67.71-.05,1,.09s.54.34.23.77c-.91,1.29-1.8,2.59-2.77,3.83C207.5,139.07,207.45,139.2,207.25,139.24Z"/><path class="cls-1" d="M190.51,154.4c-.21-.32-.42-.66-.64-1s.08-.36.23-.46c1.28-.89,2.57-1.76,3.84-2.67.3-.21.51-.2.63.12s.84.59.38,1a38.3,38.3,0,0,1-4.23,2.92A2.28,2.28,0,0,1,190.51,154.4Z"/><path class="cls-1" d="M131.05,158a7.86,7.86,0,0,1-.41.94c-.31.49-.62,0-.87-.09-1.29-.58-2.56-1.22-3.85-1.81-.37-.18-.51-.33-.27-.76.47-.85.44-.85,1.32-.43,1.21.6,2.43,1.17,3.65,1.76C130.79,157.66,131,157.7,131.05,158Z"/><path class="cls-1" d="M219.45,114.05c-.28,1.07-.54,2.08-.82,3.1-.16.59-.36,1.18-.52,1.77-.09.35-.25.4-.59.29-1-.32-1-.3-.68-1.29.38-1.32.74-2.64,1.08-4,.1-.36.28-.45.59-.31S219.3,113.59,219.45,114.05Z"/><path class="cls-1" d="M109.39,55.71a5.89,5.89,0,0,1-.91-.89c-.16-.25.21-.4.37-.56,1.06-1,2.15-2.07,3.2-3.13.28-.27.43-.27.69,0,.68.74.7.73,0,1.39-1,.92-2,1.85-2.89,2.84C109.73,55.51,109.64,55.69,109.39,55.71Z"/><path class="cls-1" d="M93.42,112.5c.32-.09.35.15.4.34.4,1.53.78,3.06,1.18,4.58.08.28,0,.42-.24.5a7.19,7.19,0,0,0-.79.24c-.24.08-.32,0-.38-.23-.46-1.58-.88-3.17-1.24-4.78-.06-.27,0-.43.28-.49S93.16,112.55,93.42,112.5Z"/><path class="cls-1" d="M104.75,59.15a5.07,5.07,0,0,1,1,.83c.17.22-.17.42-.31.62-.83,1.17-1.69,2.33-2.5,3.52-.45.67-.71,0-1-.1s-.51-.36-.21-.77c.93-1.25,1.82-2.52,2.73-3.78C104.47,59.35,104.53,59.18,104.75,59.15Z"/><path class="cls-1" d="M218.09,80.21c.25,0,.27.13.31.28q.71,2.37,1.24,4.77c.07.31,0,.42-.31.47a5.37,5.37,0,0,0-.67.15c-.28.08-.42,0-.49-.3-.39-1.55-.79-3.09-1.19-4.64,0-.19-.12-.35.15-.43Z"/><path class="cls-1" d="M215.18,75.29c-.24,0-.26-.18-.32-.31-.6-1.46-1.25-2.9-2-4.31-.15-.3-.09-.45.21-.57a3.5,3.5,0,0,0,.61-.31c.27-.18.4-.07.52.18q1.08,2.19,2,4.44c.13.32.05.46-.25.56S215.45,75.19,215.18,75.29Z"/><path class="cls-1" d="M185.49,157.08c0,.26-.16.29-.29.35l-4.41,2c-.31.15-.51.06-.54-.25s-.7-.79-.1-1.09c1.46-.75,3-1.39,4.46-2.07.16-.07.29-.12.39.08S185.33,156.78,185.49,157.08Z"/><path class="cls-1" d="M142.24,35.52s.16,0,.18,0a2.39,2.39,0,0,1,.27,1.19c0,.29-.39.25-.61.3a42.91,42.91,0,0,0-4.18,1.12c-.8.26-.61-.42-.78-.75s-.18-.59.33-.72C139,36.3,140.59,35.87,142.24,35.52Z"/><path class="cls-1" d="M97.13,74.21c-.27-.12-.61-.25-.93-.41s-.08-.28,0-.42c.64-1.49,1.36-2.95,2.09-4.39.15-.29.29-.37.58-.18a2.5,2.5,0,0,0,.61.31c.28.12.29.28.16.53-.74,1.4-1.41,2.82-2.05,4.27C97.51,74.07,97.46,74.29,97.13,74.21Z"/><path class="cls-1" d="M213.38,129.7a4.47,4.47,0,0,1-1-.6c-.2-.21.12-.49.23-.72.59-1.26,1.24-2.49,1.78-3.78.34-.81.74-.25,1.13-.16s.46.36.27.74c-.67,1.36-1.31,2.72-2,4.08C213.7,129.42,213.68,129.67,213.38,129.7Z"/><path class="cls-1" d="M116.83,149.38l.39.27c1.23.88,2.44,1.78,3.69,2.62.66.45.08.71-.07,1s-.34.54-.77.22c-1.11-.84-2.27-1.62-3.4-2.44-.82-.58-.81-.59-.14-1.38C116.62,149.6,116.73,149.49,116.83,149.38Z"/><path class="cls-1" d="M186.5,41.83c-.18.32-.36.69-.58,1-.1.15-.25,0-.36,0q-2.1-1.11-4.27-2c-.73-.33-.08-.72,0-1.07s.22-.5.63-.31c1.46.66,2.91,1.34,4.33,2.08C186.35,41.53,186.54,41.56,186.5,41.83Z"/><path class="cls-1" d="M99.22,128c-.23.38-.7.43-1,.65s-.32,0-.41-.21c-.72-1.45-1.4-2.92-2-4.42-.14-.31,0-.43.23-.57,1-.46.94-.47,1.39.52.53,1.19,1.08,2.37,1.62,3.55Z"/><path class="cls-1" d="M117.74,48.31a3.29,3.29,0,0,1-.81-1c-.17-.29.19-.37.36-.48,1.23-.86,2.49-1.7,3.73-2.56.3-.22.49-.29.74.11.5.84.52.81-.29,1.37-1.1.74-2.18,1.51-3.28,2.26C118.05,48.1,117.9,48.2,117.74,48.31Z"/><path class="cls-7" d="M191.22,78.58A14.58,14.58,0,1,1,176.64,64,14.57,14.57,0,0,1,191.22,78.58Z"/><path class="cls-7" d="M186,121.74a15.28,15.28,0,0,1-3.58,2.45,10,10,0,0,1-8.38.11,6,6,0,0,1-3.67-5.46c-.34-4.47,2.27-6.83,6.35-7.59,2.12-.39,4.25-.65,6.38-1,2.85-.42,3.31-1.92,2.47-4.73a3,3,0,0,0-2.34-1.83,10,10,0,0,0-4.82-.09,3.89,3.89,0,0,0-3.2,3.41c-.08.43-.22.52-.61.51-.91,0-1.83,0-2.75,0-.46,0-.51-.16-.48-.56.26-3.36,1.73-5.3,4.93-6.36a14.77,14.77,0,0,1,8.73-.12c3.11.87,4.57,2.87,4.58,6.1,0,4.36,0,8.71,0,13.07,0,1.84.5,2.34,2.32,2.28.37,0,.53.05.51.46,0,.62,0,1.24,0,1.86,0,.24,0,.45-.31.52a8.24,8.24,0,0,1-3.46.22,3,3,0,0,1-2.47-2.44C186.13,122.32,186.08,122.06,186,121.74Z"/><path class="cls-7" d="M161.78,121.06a9.82,9.82,0,0,1-5,3.69,9.57,9.57,0,0,1-7.32-.7,5.4,5.4,0,0,1-3-4.87c-.07-6.05,0-12.1,0-18.15,0-.34.11-.43.43-.42.92,0,1.84,0,2.75,0,.58,0,.55.26.55.66q0,7.8,0,15.61a6.63,6.63,0,0,0,.2,1.83,4.26,4.26,0,0,0,4,3.14c3.49.23,6.07-1.83,6.82-5.43a13.74,13.74,0,0,0,.27-2.79c0-4.13,0-8.25,0-12.38,0-.51.12-.67.64-.64a23.91,23.91,0,0,0,2.54,0c.47,0,.56.15.56.58,0,3.26,0,6.51,0,9.77,0,4.17,0,8.34,0,12.51,0,.52-.12.68-.64.65a17.94,17.94,0,0,0-2.2,0c-.42,0-.56-.11-.54-.54C161.8,122.73,161.78,121.89,161.78,121.06Z"/><path class="cls-7" d="M122.21,107.73q0-7.83,0-15.67c0-.49.07-.69.62-.66a29.23,29.23,0,0,0,3,0c.48,0,.6.12.6.6,0,5.77,0,11.55,0,17.32,0,3.46,0,6.93,0,10.39,0,.55.12.72.71.72,4.92,0,9.85,0,14.78,0,.53,0,.71.13.68.68a18.12,18.12,0,0,0,0,2.33c0,.54-.14.69-.68.69-4,0-8.07,0-12.1,0-2.25,0-4.5,0-6.74,0-.6,0-.81-.11-.8-.77C122.22,118.14,122.21,112.94,122.21,107.73Z"/><path class="cls-8" d="M185.9,112.5c0,1.5,0,2.9,0,4.3a3.53,3.53,0,0,1-1.06,2.52,7.85,7.85,0,0,1-8,2.24,3.26,3.26,0,0,1-2.6-2.94,3.4,3.4,0,0,1,1.77-3.7,11.57,11.57,0,0,1,4.06-1.18A24.82,24.82,0,0,0,185.9,112.5Z"/></g></svg>