<svg xmlns="http://www.w3.org/2000/svg" viewBox="0 0 312 216"><defs><style>.cls-1{fill:#5b6abe;}.cls-2{fill:#273492;}.cls-3{fill:#3747a9;}.cls-4{fill:#fefefe;}</style></defs><title>iconos</title><g id="c"><path class="cls-1" d="M212.63,90.12l-57.3,32.43L99.21,154.32a8.78,8.78,0,0,1-.6-3.19V94.7a8.59,8.59,0,0,1,.73-3.49A8.78,8.78,0,0,1,103,87.09l48.86-28.21a8.79,8.79,0,0,1,8.79,0l48.87,28.21A8.74,8.74,0,0,1,212.63,90.12Z"/><path class="cls-2" d="M213.09,154.88a8.84,8.84,0,0,1-3.56,3.86L160.66,187a8.79,8.79,0,0,1-8.79,0L103,158.74a8.77,8.77,0,0,1-3.8-4.42l56.12-31.77Z"/><path class="cls-3" d="M213.93,94.7v56.43a8.83,8.83,0,0,1-.84,3.75l-57.76-32.33,57.3-32.43A8.66,8.66,0,0,1,213.93,94.7Z"/><path class="cls-4" d="M193.18,143.9a42.8,42.8,0,1,1-37.09-64.16c15.62,0,29.62,8.89,37.09,21.39l-18.74,10.6a22.36,22.36,0,0,0-18.86-10.67,21.44,21.44,0,1,0,18.62,32.07Z"/></g></svg>