<svg xmlns="http://www.w3.org/2000/svg" viewBox="0 0 312 216"><defs><style>.cls-1{fill:#66217b;}.cls-2{fill:#812c96;}.cls-3{fill:#963dad;}.cls-4{fill:#fefefe;}</style></defs><title>iconos</title><g id="C_" data-name="C#"><path class="cls-1" d="M213.49,130.89a9.82,9.82,0,0,1-3.34,3.19L163,161.29a9.81,9.81,0,0,1-9.78,0l-47.12-27.21a10.55,10.55,0,0,1-2.68-1.79l55.81-33.36Z"/><path class="cls-2" d="M215,71.2v54.41a9.74,9.74,0,0,1-1.55,5.28l-54.23-32,54.5-32.57A9.72,9.72,0,0,1,215,71.2Z"/><path class="cls-3" d="M213.76,66.36,159,99.1l-55.54,33.19a9.78,9.78,0,0,1-2.48-6.51V71.38a9.77,9.77,0,0,1,4.89-8.48L153,35.7a9.81,9.81,0,0,1,9.78,0l47.12,27.2A10.17,10.17,0,0,1,213.76,66.36Z"/><path class="cls-4" d="M174.11,107.68l16.75,9.88c-6.56,11.61-19.58,20.08-33.87,20.08a38.22,38.22,0,0,1,0-76.44,37.54,37.54,0,0,1,33.19,19.26l-16.27,9.73a18.46,18.46,0,1,0-16.13,27.38C164.45,117.57,170.86,113,174.11,107.68Z"/><path class="cls-4" d="M205,94.74V91.68h-3.07l.79-5.07h-3.12l-.82,5.07h-5.07l.79-5.07h-3.12l-.82,5.07h-3.65v3.06h3.15l-.88,5.4h-3.26v3.06h2.76l-.78,4.8,3.3-.14.72-4.66h5l-.78,4.8,3.3-.14.72-4.66H204v-3.06h-3.39l.84-5.4Zm-7.6,5.4h-5l.84-5.4h5Z"/></g></svg>