<svg xmlns="http://www.w3.org/2000/svg" viewBox="0 0 312 216"><defs><style>.cls-1{fill:#f2f2f2;}.cls-2{fill:#da380e;}.cls-3{fill:#73a0fa;}</style></defs><title>iconos</title><g id="java"><path class="cls-1" d="M156,207.63a10.79,10.79,0,0,1-5.4-1.45L80.49,165.7a10.83,10.83,0,0,1-5.39-9.34v-81a10.85,10.85,0,0,1,5.39-9.35L150.6,25.58a10.78,10.78,0,0,1,10.8,0l70.11,40.47a10.85,10.85,0,0,1,5.39,9.35v81a10.83,10.83,0,0,1-5.39,9.34L161.4,206.18A10.79,10.79,0,0,1,156,207.63Z"/><path class="cls-1" d="M156,24.63A10.38,10.38,0,0,1,161.15,26l70.11,40.48a10.32,10.32,0,0,1,5.14,8.91v81a10.32,10.32,0,0,1-5.14,8.91l-70.11,40.48a10.3,10.3,0,0,1-10.3,0L80.74,165.27a10.32,10.32,0,0,1-5.14-8.91v-81a10.32,10.32,0,0,1,5.14-8.91L150.85,26A10.38,10.38,0,0,1,156,24.63m0-1a11.29,11.29,0,0,0-5.65,1.51L80.24,65.62A11.3,11.3,0,0,0,74.6,75.4v81a11.3,11.3,0,0,0,5.64,9.78l70.11,40.47a11.26,11.26,0,0,0,11.3,0l70.11-40.47a11.3,11.3,0,0,0,5.64-9.78v-81a11.3,11.3,0,0,0-5.64-9.78L161.65,25.14A11.29,11.29,0,0,0,156,23.63Z"/><path class="cls-2" d="M166.61,42.15a4.21,4.21,0,0,1,1.22,1.58c4.82,8.32,3.64,17.77-2.94,24.76-3.93,4.17-8.43,7.66-12.78,11.34-1.31,1.1-2.54,2.3-3.81,3.45-2.78,2.49-3.52,5.59-2.94,9.2a70.11,70.11,0,0,0,5.91,18.27c.21.47.47.92.65,1.4a1.16,1.16,0,0,1-.34,1.5,1.1,1.1,0,0,1-1.41-.22c-5.89-5-11.15-10.42-13.91-17.83-2-5.44-1.17-10.47,2-15.26a44.25,44.25,0,0,1,10.81-10.9c3.5-2.6,7.2-5,10.5-7.84,3.68-3.22,5.09-7.49,5.75-12.13a18.84,18.84,0,0,0,0-5.51,1.51,1.51,0,0,1,.78-1.81Z"/><path class="cls-3" d="M148.6,173.59A169.5,169.5,0,0,1,126.94,171c-.8-.15-1.59-.32-2.38-.51a1.05,1.05,0,0,1,.27-2.08c1.5,0,3,.05,4.5.1,14.21.46,28.43.7,42.64-.1,7.93-.44,15.61-1.92,22.8-5.45a20.11,20.11,0,0,0,4.52-2.9c.46-.4,1-.79,1.61-.38s.56,1.13.34,1.73a11.64,11.64,0,0,1-4.71,5.76c-3.95,2.7-8.45,3.84-13.08,4.59a151,151,0,0,1-16.84,1.81c-.21,0-1.43.08-1.86.12-.66.07-3.14.18-3.66.16H159.8c-.45,0-4.52-.15-5.52-.1-.6,0-2.54-.06-3.47-.09C150.38,173.69,148.87,173.61,148.6,173.59Z"/><path class="cls-3" d="M114.67,157.32a27.31,27.31,0,0,0,8,2.11,179.8,179.8,0,0,0,44.1,1,125.41,125.41,0,0,0,21.51-3.56,18,18,0,0,0,3.5-1.23c.71-.36,1.1-.83.69-1.64a1,1,0,0,1,.28-1.37,1.22,1.22,0,0,1,1.54.16,3.78,3.78,0,0,1,.36,6.09,15.11,15.11,0,0,1-5.06,2.71,83.55,83.55,0,0,1-18.86,4.27,223.64,223.64,0,0,1-37.22,1.28c-7.15-.27-14.3-.67-21.26-2.56a12.89,12.89,0,0,1-5.79-2.89c-2.41-2.31-2-5.33.94-6.87,3.18-1.67,6.67-2.1,10.15-2.54,2.21-.28,4.44-.39,6.66-.55.81-.07,1.81-.23,1.92.91s-.93,1.19-1.7,1.34a43.24,43.24,0,0,0-7.9,2.19A4,4,0,0,0,114.67,157.32Z"/><path class="cls-3" d="M126.69,119.46a54.2,54.2,0,0,0,11.86,1.27,207.71,207.71,0,0,0,33.36-1.45c2-.26,4-.74,6.06-1.12l.75-.16c.67-.13,1.34-.17,1.64.59s-.25,1.2-.79,1.57a23,23,0,0,1-2,1.22c-5.74,3.16-12,4.69-18.42,5.64a120.65,120.65,0,0,1-26,.74A41.85,41.85,0,0,1,120,125.14a9.93,9.93,0,0,1-3.35-2.1,3.82,3.82,0,0,1,.58-6.18c2.47-1.7,5.36-2.18,8.23-2.67a70.51,70.51,0,0,1,11.52-.86c.69,0,1.36.07,1.46.9s-.53,1.13-1.26,1.3a43,43,0,0,0-8.8,2.74A3.35,3.35,0,0,0,126.69,119.46Z"/><path class="cls-2" d="M158.4,117.18c0-.15.18-.51.33-.86a23.69,23.69,0,0,0,1.5-5,5.29,5.29,0,0,0-1.11-4.56c-2-2.59-4.24-5.1-5.32-8.29-1.29-3.77-2.19-7.61-.54-11.52a17.41,17.41,0,0,1,5.06-6.39c5.68-4.83,12.28-8.08,19.11-10.91.64-.27,1.18-.24,1.55.39s-.06,1.21-.58,1.62c-2.83,2.22-5.64,4.48-8.31,6.9A38.5,38.5,0,0,0,164,85c-2.14,3.09-2.21,5.67-.23,8.83,1.53,2.47,3.26,4.81,4.19,7.63a11.33,11.33,0,0,1-1.3,9.84,25.06,25.06,0,0,1-6.3,6.88,1.41,1.41,0,0,1-1.54.35C158.44,118.3,158.31,117.88,158.4,117.18Z"/><path class="cls-3" d="M151.77,155c-6.05-.24-11.91-.5-17.58-2.25a11,11,0,0,1-4.29-2.25c-2.43-2.2-2.09-5.37.8-6.89a10.33,10.33,0,0,1,4.82-1.16c1.15,0,1.65.7,1.06,1.63-.47.74-.15.81.45,1a58.22,58.22,0,0,0,9,1.3c6.75.73,13.32-.49,19.9-1.7A2.7,2.7,0,0,1,168,145c1.81,1.15,3.65,2.24,5.47,3.36.54.33,1.19.6,1.15,1.4s-.72,1-1.31,1.22a55.25,55.25,0,0,1-14.54,3.56C156.38,154.86,154,154.81,151.77,155Z"/><path class="cls-3" d="M145.41,133.67a104,104,0,0,0,23.44-2.7,3.21,3.21,0,0,1,3.09.6c1.15.94,2.44,1.73,3.66,2.6.56.39,1.23.73,1.05,1.59s-1,.87-1.62,1c-5,1.09-10,2.09-15,2.79a89.78,89.78,0,0,1-17,1.07,43.21,43.21,0,0,1-14.3-2.75,10,10,0,0,1-3-1.76,2.94,2.94,0,0,1,.07-4.76c1.88-1.64,4.27-2.1,6.56-2.77a1,1,0,0,1,1.22.7,1,1,0,0,1-.44,1.23l-.22.13c-.5.31-1.35.54-1.23,1.15s1.1.69,1.73.83A69.35,69.35,0,0,0,145.41,133.67Z"/><path class="cls-3" d="M202.58,122.9c-.09,4.17-2.29,7.17-5.45,9.57-4.54,3.45-9.8,5.32-15.26,6.7-.66.16-1.23.09-1.54-.55s.09-1.14.62-1.51a54.78,54.78,0,0,0,9.82-8.41,15.84,15.84,0,0,0,2.88-4.23,4.74,4.74,0,0,0-2-6.2,16.82,16.82,0,0,0-7.82-2.22c-.73-.06-1.57,0-1.7-1s.6-1.15,1.24-1.43a21.82,21.82,0,0,1,8.66-2.08,9.57,9.57,0,0,1,9.7,7.08A14.39,14.39,0,0,1,202.58,122.9Z"/></g></svg>