<svg xmlns="http://www.w3.org/2000/svg" viewBox="0 0 312 216"><defs><style>.cls-1{fill:#f2f2f2;}.cls-1,.cls-3{stroke:#d9d9d9;}.cls-1,.cls-2,.cls-3,.cls-5{stroke-miterlimit:10;}.cls-2{fill:#efeded;}.cls-2,.cls-4,.cls-5{stroke:#e75791;}.cls-3,.cls-4,.cls-5{fill:none;}.cls-4{stroke-linecap:round;stroke-linejoin:round;stroke-width:2px;}</style></defs><title>iconos</title><g id="uxWriting"><rect class="cls-1" x="95.2" y="41.58" width="125.55" height="125.07" rx="51.57"/><path class="cls-2" d="M176.61,80.37v22.27a10.86,10.86,0,0,1-10.83,10.83H137.6c-1.13.92-8.17,6.66-11.66,10.2-3.79,3.85-4.12-.61-4.12-.61v-9.72a10.86,10.86,0,0,1-9.19-10.7V80.37a10.86,10.86,0,0,1,10.83-10.83h42.32A10.87,10.87,0,0,1,176.61,80.37Z"/><path class="cls-3" d="M137.76,113.34l-.16.13"/><line class="cls-4" x1="123.3" y1="78.64" x2="156.16" y2="78.53"/><line class="cls-4" x1="123.4" y1="87.64" x2="139.9" y2="87.88"/><line class="cls-4" x1="123.72" y1="96.52" x2="136.64" y2="96.52"/><line class="cls-4" x1="123.42" y1="105.25" x2="136.82" y2="105.25"/><path class="cls-2" d="M203,97.35V118a12,12,0,0,1-10.1,11.85,96.44,96.44,0,0,1-.17,10.11c-.49,4.72-4,.3-4,.3L176.17,130H150.38a12,12,0,0,1-12-12V97.35a12,12,0,0,1,12-12H191A12,12,0,0,1,203,97.35Z"/><path class="cls-5" d="M152,110l8.57,7.82a1,1,0,0,1,.1,1.42l-1,1.3a1,1,0,0,1-1.47.14l-9.92-8.34-2.2-1.88a.8.8,0,0,1-.15-1.26l12.08-10.43a1,1,0,0,1,1.46.1l1.19,1.39a1,1,0,0,1-.1,1.46L152,109A.64.64,0,0,0,152,110Z"/><path class="cls-5" d="M187,110.25l-8.57,7.83a1,1,0,0,0-.11,1.42l1.05,1.29a1,1,0,0,0,1.47.14l9.92-8.33,2.2-1.88a.81.81,0,0,0,.15-1.27L181.07,99a1,1,0,0,0-1.46.11l-1.2,1.38a1,1,0,0,0,.11,1.46l8.47,7.35A.63.63,0,0,1,187,110.25Z"/><rect class="cls-5" x="168.62" y="95.43" width="4.06" height="26.32" rx="1.08" transform="translate(29.67 -36.45) rotate(13.34)"/></g></svg>