<svg xmlns="http://www.w3.org/2000/svg" viewBox="0 0 312 216"><defs><style>.cls-1{fill:#f2f2f2;}.cls-2{fill:#cecece;}.cls-3{fill:#ed1c24;}.cls-4{fill:#b21823;}.cls-5{fill:#75111d;}</style></defs><title>iconos</title><g id="ruby"><path class="cls-1" d="M168.18,173.1a6.4,6.4,0,0,1-3.23-.86l-51.2-29.56a6.46,6.46,0,0,1-3.22-5.58V78a6.48,6.48,0,0,1,3.22-5.58L165,42.84a6.48,6.48,0,0,1,6.45,0L222.6,72.4A6.48,6.48,0,0,1,225.82,78V137.1a6.46,6.46,0,0,1-3.22,5.58l-51.2,29.56A6.39,6.39,0,0,1,168.18,173.1Z"/><path class="cls-1" d="M168.18,42.47a6,6,0,0,1,3,.8l51.2,29.56a6,6,0,0,1,3,5.15V137.1a6,6,0,0,1-3,5.15l-51.2,29.56a5.93,5.93,0,0,1-6,0L114,142.25a6,6,0,0,1-3-5.15V78a6,6,0,0,1,3-5.15l51.2-29.56a6,6,0,0,1,3-.8m0-1a7,7,0,0,0-3.48.94L113.5,72A7,7,0,0,0,110,78V137.1a7,7,0,0,0,3.47,6l51.2,29.55a6.89,6.89,0,0,0,7,0l51.2-29.55a7,7,0,0,0,3.47-6V78a7,7,0,0,0-3.47-6l-51.2-29.55a7,7,0,0,0-3.47-.94Z"/><path class="cls-2" d="M193.61,81.44,226,101.06l.3,36s.48,3.78-4.74,6.54-25.26,14.58-25.26,14.58l-26.82-15,32.56-47.75Z"/><path class="cls-1" d="M168.18,42.93a6,6,0,0,1,3,.8l51.2,29.56a6,6,0,0,1,3,5.15v59.12a6,6,0,0,1-3,5.15l-51.2,29.56a5.93,5.93,0,0,1-6,0L114,142.71a6,6,0,0,1-3-5.15V78.44a6,6,0,0,1,3-5.15l51.2-29.56a6,6,0,0,1,3-.8m0-1a7,7,0,0,0-3.48.94L113.5,72.42a7,7,0,0,0-3.47,6v59.12a7,7,0,0,0,3.47,6l51.2,29.55a6.89,6.89,0,0,0,7,0l51.2-29.55a7,7,0,0,0,3.47-6V78.44a7,7,0,0,0-3.47-6l-51.2-29.55a7,7,0,0,0-3.47-.94Z"/><polygon class="cls-3" points="144.85 81.44 193.03 81.44 201.47 95.43 136.33 95.33 144.85 81.44"/><polygon class="cls-4" points="144.85 81.44 136.32 95.33 152.87 95.33 144.85 81.44"/><polygon class="cls-4" points="161.04 81.44 152.87 95.33 168.9 95.6 161.04 81.44"/><polygon class="cls-5" points="177.35 81.44 168.9 95.6 185.43 95.43 177.35 81.44"/><polygon class="cls-4" points="193.02 81.44 185.43 95.43 201.47 95.43 193.02 81.44"/><polygon class="cls-3" points="136.32 95.33 168.9 143.18 152.87 95.33 136.32 95.33"/><polygon class="cls-3" points="152.87 95.33 168.9 143.18 168.9 95.6 152.87 95.33"/><polygon class="cls-4" points="168.9 95.6 168.9 143.18 185.43 95.43 168.9 95.6"/><polygon class="cls-5" points="185.43 95.43 168.9 143.18 201.47 95.43 185.43 95.43"/></g></svg>