<svg xmlns="http://www.w3.org/2000/svg" xmlns:xlink="http://www.w3.org/1999/xlink" viewBox="0 0 312 216"><defs><style>.cls-1{fill:#3e9439;}.cls-2{fill:url(#linear-gradient);}.cls-3{fill:#3f873f;}.cls-4{fill:#3f893e;}.cls-5,.cls-7,.cls-8{fill:none;}.cls-5{stroke:#3e9439;}.cls-5,.cls-7,.cls-8,.cls-9{stroke-miterlimit:10;}.cls-6,.cls-9{fill:#37474f;}.cls-7{stroke:#c7d0d3;}.cls-8,.cls-9{stroke:#37474f;}.cls-10{fill:#388e3c;}</style><linearGradient id="linear-gradient" x1="104.23" y1="100.99" x2="150.29" y2="129.49" gradientUnits="userSpaceOnUse"><stop offset="0" stop-color="#6abf4b"/><stop offset="0.42" stop-color="#54a345"/><stop offset="1" stop-color="#3f873f"/></linearGradient></defs><title>iconos</title><g id="nodejs"><path class="cls-1" d="M101.6,106v21a9.84,9.84,0,0,0,4.92,8.52l18.2,10.51a9.85,9.85,0,0,0,9.85,0l18.2-10.51a9.84,9.84,0,0,0,4.92-8.52V106a9.86,9.86,0,0,0-4.92-8.52L134.57,87a9.85,9.85,0,0,0-9.85,0l-18.2,10.51A9.86,9.86,0,0,0,101.6,106Z"/><path class="cls-2" d="M103.67,100l8.93,16.53,17.32,32.05a6.06,6.06,0,0,0,3.23-1.13c1.44-1.11,22.35-12.9,22.35-12.9a25.22,25.22,0,0,0,1.83-1.92c.13-.26.29-.68.29-.68l-27-46.4a4.86,4.86,0,0,0-3.1.58l-14.75,8.51Z"/><path class="cls-3" d="M103.81,133.89l9.33-15.84,16.76,30.36s-1.09.41-3.17-.79l-15.59-9-6.67-4Z"/><path class="cls-4" d="M156.52,101.08l-8.24,15.1,8.7,14.95s.18.56.26.25.2-3.89.2-3.89V106.37s0-3.29-.16-3.73A15.48,15.48,0,0,0,156.52,101.08Z"/><path class="cls-5" d="M101.6,106.68v21a9.83,9.83,0,0,0,4.92,8.52l18.2,10.51a9.85,9.85,0,0,0,9.85,0l18.2-10.51a9.83,9.83,0,0,0,4.92-8.52v-21a9.86,9.86,0,0,0-4.92-8.52l-18.2-10.51a9.85,9.85,0,0,0-9.85,0l-18.2,10.51A9.86,9.86,0,0,0,101.6,106.68Z"/><path class="cls-6" d="M41.73,101.08v39.39s-.26,2.87,1.69,1.75,11.58-6.05,12.81-7.69.82-24.81.82-24.81l12.51-7.18,12.91,7.38s-.92,23.58,0,24.1,13.23,8.82,13.84,8.46a2.24,2.24,0,0,0,1.23-2.42c-.1-1.53-.41-38.44-.41-38.44s-24-14.25-26-15.07-2.93,0-7.27,2.41C60,91.1,41.73,101.08,41.73,101.08Z"/><path class="cls-6" d="M222.47,57.64c-.84-1.07-7.57-4.15-10.5-6s-3,.61-3,.61l0,41.94-11.45-6.61a3.39,3.39,0,0,0-3.4,0l-23,13.26a3.42,3.42,0,0,0-1.7,3v26.53a3.41,3.41,0,0,0,1.7,2.95l23,13.27a3.44,3.44,0,0,0,3.4,0l23-13.27a3.41,3.41,0,0,0,1.7-2.95S223.32,58.72,222.47,57.64Zm-14.32,65.13a1.18,1.18,0,0,1-.58,1l-11.24,6.48a1.15,1.15,0,0,1-1.16,0l-11.24-6.48a1.17,1.17,0,0,1-.57-1v-13a1.14,1.14,0,0,1,.57-1l11.24-6.49a1.15,1.15,0,0,1,1.16,0l11.24,6.49a1.15,1.15,0,0,1,.58,1Z"/><path class="cls-7" d="M208.15,109.8v13a1.18,1.18,0,0,1-.58,1l-11.24,6.48a1.15,1.15,0,0,1-1.16,0l-11.24-6.48a1.17,1.17,0,0,1-.57-1v-13a1.14,1.14,0,0,1,.57-1l11.24-6.49a1.15,1.15,0,0,1,1.16,0l11.24,6.49A1.15,1.15,0,0,1,208.15,109.8Z"/><path class="cls-8" d="M208.15,109.8v13a1.18,1.18,0,0,1-.58,1l-11.24,6.48a1.15,1.15,0,0,1-1.16,0l-11.24-6.48a1.17,1.17,0,0,1-.57-1v-13a1.14,1.14,0,0,1,.57-1l11.24-6.49a1.15,1.15,0,0,1,1.16,0l11.24,6.49A1.15,1.15,0,0,1,208.15,109.8Z"/><path class="cls-9" d="M269.19,119.51v-8.4a1.63,1.63,0,0,0-.83-1.44l-10.54-6.09a1.66,1.66,0,0,0-1.67,0l-10.53,6.09a1.63,1.63,0,0,0-.83,1.44v12.17a1.63,1.63,0,0,0,.83,1.44L257,131.28l11.18,6.21a1.67,1.67,0,0,1,0,2.9l-11.33,6.54a1.64,1.64,0,0,1-1.66,0l-24.93-14.39a1.68,1.68,0,0,1-.83-1.44V102.32a1.66,1.66,0,0,1,.83-1.44l24.93-14.4a1.69,1.69,0,0,1,1.66,0l24.92,14.4a1.63,1.63,0,0,1,.83,1.44v11.76a1.67,1.67,0,0,1-.87,1.47L271.64,121A1.67,1.67,0,0,1,269.19,119.51Z"/><polygon class="cls-10" points="252.59 114.13 252.59 119.28 257.05 121.86 261.51 119.28 261.51 114.13 257.05 111.56 252.59 114.13"/></g></svg>